<svg width="30" height="28" viewBox="0 0 30 28" fill="none" xmlns="http://www.w3.org/2000/svg">
<path d="M0.572228 7.20532C-0.164253 5.02722 1.00441 2.66448 3.18251 1.928C5.36061 1.19152 7.72335 2.36018 8.45983 4.53828L14.2367 21.6229C14.9731 23.801 13.8045 26.1638 11.6264 26.9003C9.44828 27.6367 7.08555 26.4681 6.34907 24.29L0.572228 7.20532Z" fill="#32BFA3"/>
<path fill-rule="evenodd" clip-rule="evenodd" d="M27.0466 1.69422C24.8723 0.95775 22.5125 2.12341 21.7761 4.29779L20.2884 8.69014L24.6223 21.5073C24.6398 21.5593 24.6563 21.6113 24.6717 21.6635L29.6502 6.96477C30.3867 4.79039 29.221 2.43068 27.0466 1.69422Z" fill="#FA9856"/>
<path d="M10.1312 6.97163C9.3947 4.79353 10.5634 2.4308 12.7415 1.69431C14.9196 0.957834 17.2823 2.1265 18.0188 4.3046L23.7956 21.3893C24.5321 23.5674 23.3634 25.9301 21.1853 26.6666C19.0072 27.4031 16.6445 26.2344 15.908 24.0563L10.1312 6.97163Z" fill="url(#paint0_linear_2_863)"/>
<defs>
<linearGradient id="paint0_linear_2_863" x1="8.85371" y1="0.360803" x2="25.1492" y2="27.9924" gradientUnits="userSpaceOnUse">
<stop stop-color="#144862"/>
<stop offset="1" stop-color="#3B7694"/>
</linearGradient>
</defs>
</svg>
